<?xml version="1.0" encoding="UTF-8" standalone="no"?>
<svg xmlns="http://www.w3.org/2000/svg" xmlns:xlink="http://www.w3.org/1999/xlink" width="48" height="48" version="1.1">
 <defs>
  <linearGradient id="gradientebianco">
   <stop style="stop-color:#eff1f1;stop-opacity:1" offset="0"/>
   <stop style="stop-color:#ececec;stop-opacity:1;" offset="1"/>
  </linearGradient>
  <linearGradient id="gradientesfondo">
   <stop style="stop-color:#22bdff;stop-opacity:1" offset="0"/>
   <stop style="stop-color:#136b90;stop-opacity:1" offset="1"/>
  </linearGradient>
  <linearGradient xlink:href="#gradientesfondo" id="gradientesfondorettangolo" x1="35" y1="44" x2="19" y2="3" gradientUnits="userSpaceOnUse"/>
 </defs>
 <g>
     <!--The square-->
  <rect style="opacity:1;fill:url(#gradientesfondorettangolo);fill-opacity:1;stroke:none;stroke-width:2;stroke-linecap:round;stroke-linejoin:round;stroke-miterlimit:4;stroke-dasharray:none;stroke-opacity:1" width="40" height="40" x="4" y="4" rx="2" ry="2"/>
  <path style="opacity:0.15;fill:#000000;fill-opacity:1;stroke:none;stroke-width:2;stroke-linecap:round;stroke-linejoin:round;stroke-miterlimit:4;stroke-dasharray:none;stroke-opacity:1" d="M 4 41 L 4 42 C 4 43.108 4.892 44 6 44 L 42 44 C 43.108 44 44 43.108 44 42 L 44 41 C 44 42.108 43.108 43 42 43 L 6 43 C 4.892 43 4 42.108 4 41 z"/>

    <!--The Q-->
  <rect style="fill:url(#gradientebianco);fill-opacity:1;stroke:none" width="24" height="24" x="12" y="12" ry="12" rx="12"/>
  <rect style="fill:url(#gradientebianco);fill-opacity:1;stroke:none" width="6" height="3" x="30" y="30" transform="rotate(45,30,30)"/>

    <!--The space inside the Q-->
  <rect style="fill:url(#gradientesfondorettangolo);fill-opacity:1;stroke:none" width="20" height="20" x="14" y="14" ry="12" rx="12"/>

 </g>
</svg>
